<svg preserveAspectRatio="none" overflow="visible" style="display: block;" width="24.9379" height="25" viewBox="0 0 24.9379 25" fill="none" xmlns="http://www.w3.org/2000/svg">
<g id="Container">
<path id="Icon" d="M12.4688 25C10.5104 24.75 8.76042 24.25 7.21875 23.5C5.67708 22.75 4.36979 21.7708 3.29688 20.5625C2.22396 19.3542 1.40625 17.9531 0.84375 16.3594C0.28125 14.7656 0 13 0 11.0625C2.29167 11.2917 4.22917 11.7083 5.8125 12.3125C7.39583 12.9167 8.68229 13.7708 9.67188 14.875C10.6615 15.9792 11.375 17.3594 11.8125 19.0156C12.25 20.6719 12.4688 22.6667 12.4688 25V25M12.4688 14.4688C11.9896 13.7396 11.3385 13.0208 10.5156 12.3125C9.69271 11.6042 8.73958 10.9583 7.65625 10.375C7.78125 9.5 7.98958 8.59375 8.28125 7.65625C8.57292 6.71875 8.92708 5.79688 9.34375 4.89062C9.76042 3.98438 10.2344 3.11458 10.7656 2.28125C11.2969 1.44792 11.8646 0.6875 12.4688 0C13.0729 0.6875 13.6406 1.44792 14.1719 2.28125C14.7031 3.11458 15.1771 3.98438 15.5938 4.89062C16.0104 5.79688 16.3646 6.71875 16.6562 7.65625C16.9479 8.59375 17.1562 9.5 17.2812 10.375C16.1979 10.9375 15.2448 11.5729 14.4219 12.2812C13.599 12.9896 12.9479 13.7188 12.4688 14.4688V14.4688M14.9688 24.5C14.9271 23.0417 14.8177 21.6927 14.6406 20.4531C14.4635 19.2135 14.1875 18.0417 13.8125 16.9375C14.7917 15.25 16.1406 13.875 17.8594 12.8125C19.5781 11.75 21.9375 11.1667 24.9375 11.0625C24.9583 14.3542 24.0781 17.1927 22.2969 19.5781C20.5156 21.9635 18.0729 23.6042 14.9688 24.5V24.5" fill="#3525CD"/>
</g>
</svg>
